<svg xmlns="http://www.w3.org/2000/svg" height="24" viewBox="0 -960 960 960" width="24"><path d="M480-504.615q-49.5 0-84.75-35.25T360-624.615q0-49.501 35.25-84.751 35.25-35.25 84.75-35.25t84.75 35.25Q600-674.116 600-624.615q0 49.5-35.25 84.75T480-504.615ZM200-215.384v-65.847q0-24.769 14.423-46.346 14.423-21.577 38.808-33.5 56.615-27.154 113.307-40.731Q423.231-415.385 480-415.385q56.769 0 113.462 13.577 56.692 13.577 113.307 40.731 24.385 11.923 38.808 33.5Q760-306 760-281.231v65.847H200Zm40-40.001h480v-25.846q0-13.307-8.577-25-8.577-11.692-23.731-19.769-49.384-23.923-101.836-36.654Q533.405-375.385 480-375.385q-53.405 0-105.856 12.731Q321.692-349.923 272.308-326q-15.154 8.077-23.731 19.769-8.577 11.693-8.577 25v25.846Zm240-289.23q33 0 56.5-23.5t23.5-56.5q0-33-23.5-56.5t-56.5-23.5q-33 0-56.5 23.5t-23.5 56.5q0 33 23.5 56.5t56.5 23.5Zm0-80Zm0 369.23Z"/></svg>